<svg id="Layer_1" data-name="Layer 1" xmlns="http://www.w3.org/2000/svg" viewBox="0 0 357.86 358"><defs><style>.cls-1{fill:#fff;}</style></defs><path class="cls-1" d="M310,519.5a178.5,178.5,0,0,1-178.42-173h93.1a85.5,85.5,0,0,0,170.64,0h93.1A178.5,178.5,0,0,1,310,519.5Zm81.92-203a85.51,85.51,0,0,0-163.84,0H133.17a178.52,178.52,0,0,1,353.66,0Z" transform="translate(-131.07 -162)"/><path d="M310,163A178,178,0,0,1,486.25,316H392.3a86,86,0,0,0-164.6,0H133.75A178,178,0,0,1,310,163M487.9,347a178,178,0,0,1-355.8,0h92.11a86,86,0,0,0,171.58,0H487.9M310,162A179,179,0,0,0,132.6,317h95.85a85,85,0,0,1,163.1,0H487.4A179,179,0,0,0,310,162ZM488.93,346H394.85a85,85,0,0,1-169.7,0H131.07a179,179,0,0,0,357.86,0Z" transform="translate(-131.07 -162)"/><circle class="cls-1" cx="178.93" cy="178" r="51.5"/><path d="M310,289a51,51,0,1,1-51,51,51.06,51.06,0,0,1,51-51m0-1a52,52,0,1,0,52,52,52,52,0,0,0-52-52Z" transform="translate(-131.07 -162)"/></svg>